<svg width="416px" height="416px" viewBox="0 0 416 416" xmlns="http://www.w3.org/2000/svg">
  <g fill="#1D1D1B">
    <path d="M208,96 C146.25,96 96,146.25 96,208 C96,269.75 146.25,320 208,320 C269.75,320 320,269.75 320,208 C320,146.25 269.75,96 208,96 L208,96 Z M208,288 C163.812,288 128,252.188 128,208 C128,163.812 163.812,128 208,128 C252.188,128 288,163.812 288,208 C288,252.188 252.188,288 208,288 L208,288 Z M208,64 C216.833,64 224,56.833 224,48 L224,16 C224,7.167 216.833,0 208,0 C199.167,0 192,7.167 192,16 L192,48 C192,56.833 199.167,64 208,64 L208,64 Z M208,352 C199.167,352 192,359.167 192,368 L192,400 C192,408.833 199.167,416 208,416 C216.833,416 224,408.833 224,400 L224,368 C224,359.167 216.833,352 208,352 L208,352 Z M332.438,106.167 L355.063,83.542 C361.313,77.292 361.313,67.167 355.063,60.917 C348.813,54.667 338.688,54.667 332.438,60.917 L309.813,83.542 C303.563,89.792 303.563,99.917 309.813,106.167 C316.062,112.417 326.188,112.417 332.438,106.167 L332.438,106.167 Z M83.562,309.834 L60.937,332.459 C54.687,338.708 54.687,348.833 60.937,355.083 C67.187,361.333 77.312,361.333 83.562,355.083 L106.187,332.459 C112.437,326.188 112.437,316.083 106.187,309.834 C99.938,303.583 89.812,303.562 83.562,309.834 L83.562,309.834 Z M64,208 C64,199.167 56.833,192 48,192 L16,192 C7.167,192 0,199.167 0,208 C0,216.833 7.167,224 16,224 L48,224 C56.833,224 64,216.833 64,208 L64,208 Z M400,192 L368,192 C359.167,192 352,199.167 352,208 C352,216.833 359.167,224 368,224 L400,224 C408.833,224 416,216.833 416,208 C416,199.167 408.833,192 400,192 L400,192 Z M83.541,106.167 C89.792,112.417 99.917,112.417 106.166,106.167 C112.417,99.917 112.417,89.792 106.166,83.542 L83.541,60.917 C77.291,54.667 67.167,54.667 60.916,60.917 C54.666,67.167 54.666,77.292 60.916,83.542 L83.541,106.167 L83.541,106.167 Z M332.459,309.812 C326.188,303.562 316.083,303.562 309.834,309.812 C303.583,316.062 303.563,326.187 309.834,332.437 L332.459,355.062 C338.708,361.312 348.833,361.312 355.083,355.062 C361.333,348.812 361.333,338.688 355.083,332.437 L332.459,309.812 L332.459,309.812 Z"></path>
  </g>
</svg>
