<?xml version="1.0" encoding="utf-8"?>
<!-- Svg Vector Icons : http://www.onlinewebfonts.com/icon -->
<!DOCTYPE svg PUBLIC "-//W3C//DTD SVG 1.1//EN" "http://www.w3.org/Graphics/SVG/1.1/DTD/svg11.dtd">
<svg version="1.1" xmlns="http://www.w3.org/2000/svg" xmlns:xlink="http://www.w3.org/1999/xlink" x="0px" y="0px" viewBox="0 0 1000 1000" enable-background="new 0 0 1000 1000" xml:space="preserve">
<metadata> Svg Vector Icons : http://www.onlinewebfonts.com/icon </metadata>
<g><g transform="translate(0.000000,511.000000) scale(0.100000,-0.100000)"><path d="M4938.1,4985.7c-1357.3-176.2-2532.5-854.8-3337.3-1927.9C471.7,1554.4,305.6-475.6,1176.4-2147.3C1560.8-2884,2151.4-3534.6,2856-3999.1c242.2-158.2,724.7-400.4,1001-502.5c872.9-318.3,1885.8-376.4,2812.8-158.1c774.7,182.2,1491.5,556.5,2122.1,1107.1c216.2,190.2,520.5,518.5,566.5,612.6c38,80.1,20,156.2-56,230.3l-56.1,58H8934c-1217.2,0-2360.3,486.5-3209.2,1367.3C5056.2-589.7,4651.8,237.1,4505.7,1212c-42,278.3-48,864.9-12,1141.1c110.1,824.8,414.4,1567.5,910.9,2220.2c98.1,128.1,114.1,162.2,114.1,234.2c0,62.1-14,102.1-48.1,142.1c-42,48-62.1,54-184.2,60.1C5210.4,5011.7,5054.2,5001.7,4938.1,4985.7z M4838,4527.3c0-4-50-92.1-112.1-194.2c-320.3-542.5-540.5-1163.1-642.6-1819.8c-50-320.3-48-1057,0-1381.4c136.1-888.9,494.5-1703.7,1049-2392.3c204.2-254.3,600.6-638.6,846.8-822.8c724.7-544.5,1567.5-878.9,2442.4-970.9c126.1-14,232.2-28,236.2-30c10-6-198.2-198.2-336.3-308.3c-1749.7-1399.4-4276.2-1277.2-5901.8,288.3c-760.7,734.7-1231.2,1691.7-1345.3,2748.7c-36,320.3-16,932.9,38,1237.2C1432.7,2675.5,2762,4072.8,4537.7,4483.2C4737.9,4529.3,4838,4545.3,4838,4527.3z"/></g></g>
</svg>