<?xml version="1.0" encoding="UTF-8" standalone="no"?>
<svg width="512px" height="474px" viewBox="0 0 512 474" version="1.1" xmlns="http://www.w3.org/2000/svg" xmlns:xlink="http://www.w3.org/1999/xlink">
    <!-- Generator: Sketch 40.3 (33839) - http://www.bohemiancoding.com/sketch -->
    <title>9</title>
    <desc>Created with Sketch.</desc>
    <defs></defs>
    <g id="Page-1" stroke="none" stroke-width="1" fill="none" fill-rule="evenodd">
        <g id="9" transform="translate(-1.000000, 0.000000)" fill="#1D1D1B">
            <path d="M436.062,224.166 C440.937,220.541 445.874,216.978 450.291,212.562 C463.499,199.333 473.562,183.229 480.083,164.708 C482.166,158.916 480.687,152.416 476.311,148.083 C471.957,143.708 465.499,142.229 459.688,144.291 C424.292,156.791 386,148.291 359.792,122.041 C333.542,95.79 325,57.52 337.542,22.145 C339.584,16.332 338.125,9.874 333.75,5.499 C329.417,1.166 322.938,-0.335 317.125,1.708 C298.583,8.29 282.5,18.331 269.291,31.54 C235.75,65.04 225.312,112.54 236.812,155.332 C193.562,160.853 154.687,183.832 128.791,219.125 C123.562,218.375 118.312,218 112.999,218 C51.249,218 0.999,268.25 0.999,330.001 C0.999,391.75 51.249,442 112.999,442 C126.687,442 140.083,439.5 152.708,434.666 C181.665,459.916 218.499,474 256.999,474 C295.541,474 332.332,459.916 361.29,434.666 C373.915,439.5 387.311,442 400.999,442 C462.749,442 512.999,391.75 512.999,330.001 C513,280.562 480.583,238.979 436.062,224.166 L436.062,224.166 Z M291.916,54.166 C294.458,51.583 297.187,49.187 300.062,46.937 C297.812,82.916 310.791,118.312 337.166,144.666 C363.542,171.041 398.937,183.999 434.917,181.77 C421.125,199.354 402.125,210.291 381.791,214.958 C354.416,180.208 314.187,158.333 269.833,154.771 C257.562,120.812 264.75,81.333 291.916,54.166 L291.916,54.166 Z M401,410 C383.875,410 368.084,404.5 355.062,395.333 C331.583,423.625 296.624,442 257,442 C217.375,442 182.416,423.625 158.938,395.333 C145.938,404.5 130.126,410 113,410 C68.812,410 33,374.188 33,330.001 C33,285.813 68.812,250.001 113,250.001 C123.812,250.001 134.062,252.189 143.438,256.063 C163.626,216.708 203.188,189.167 249.75,186.52 C252.188,186.375 254.562,185.999 257,185.999 C269.916,185.999 282.312,188.02 294,191.582 C309.791,196.416 324.188,204.29 336.688,214.436 C348.626,224.124 358.626,235.998 366.5,249.332 C367.833,251.582 369.334,253.707 370.541,256.061 C379.937,252.186 390.209,249.999 401,249.999 C445.188,249.999 481,285.811 481,329.999 C481,374.187 445.188,410 401,410 L401,410 Z" id="Shape"></path>
        </g>
    </g>
</svg>