<svg width="512px" height="407px" viewBox="0 0 512 407" xmlns="http://www.w3.org/2000/svg">
  <g fill="#1D1D1B">
    <path d="M512,135.001 C512,85.834 472,45.855 422.833,45.855 C420.437,45.855 418.062,45.959 415.687,46.146 C392.562,17.292 357.708,0.168 319.999,0.168 C282.311,0.168 247.437,17.292 224.311,46.147 C221.936,45.959 219.54,45.856 217.123,45.856 C168,45.855 128,85.834 128,135.001 C128,140.147 128.688,145.105 129.5,150.043 C128.958,150.751 128.312,151.397 127.792,152.126 C122.563,151.376 117.313,151.001 112,151.001 C50.25,151.001 0,201.25 0,263 C0,324.751 50.25,375 112,375 C125.688,375 139.084,372.5 151.709,367.667 C180.666,392.917 217.5,407 256,407 C294.542,407 331.333,392.917 360.291,367.667 C372.916,372.5 386.312,375 400,375 C461.75,375 512,324.751 512,263 C512,237.312 502.958,213.917 488.334,195.001 C502.916,179.105 512,158.168 512,135.001 L512,135.001 Z M400,343 C382.875,343 367.084,337.501 354.062,328.334 C330.583,356.625 295.624,375 256,375 C216.375,375 181.416,356.625 157.938,328.334 C144.938,337.501 129.126,343 112,343 C67.812,343 32,307.188 32,263 C32,218.812 67.812,183.001 112,183.001 C122.812,183.001 133.062,185.189 142.438,189.063 C143,188.001 143.688,187.063 144.25,186.042 C149.875,175.771 156.812,166.354 164.916,158 C188,134.084 220.083,119 256,119 C305.709,119 348.334,147.666 369.541,189.062 C375.187,186.75 381.209,185.249 387.416,184.25 L400,183 C412.334,183 423.875,186.042 434.312,191 C445.624,196.416 455.333,204.374 462.958,214.188 C473.458,227.709 480,244.542 480,263 C480,307.188 444.188,343 400,343 L400,343 Z M465.562,172.625 C447.083,159.167 424.562,151.001 400,151.001 C394.688,151.001 389.438,151.376 384.208,152.126 C354.334,111.418 307.187,87.001 256,87.001 C221.875,87.001 189.688,98.043 163.062,117.335 C170.541,94.481 191.791,77.856 217.124,77.856 C224.874,77.856 232.186,79.418 238.874,82.188 C254.062,52.626 284.499,32.168 319.999,32.168 C355.499,32.168 385.957,52.625 401.083,82.188 C407.812,79.418 415.166,77.856 422.832,77.856 C454.416,77.856 479.999,103.439 479.999,135.002 C480,149.48 474.438,162.542 465.562,172.625 L465.562,172.625 Z"></path>
  </g>
</svg>
