<svg width="512px" height="480px" viewBox="0 0 512 480" xmlns="http://www.w3.org/2000/svg">
  <g fill="#1D1D1B">
    <path d="M400,64 C394.688,64 389.438,64.375 384.208,65.125 C354.334,24.417 307.188,0 256,0 C204.812,0 157.688,24.417 127.792,65.125 C122.562,64.375 117.312,64 112,64 C50.25,64 0,114.25 0,176 C0,237.75 50.25,288 112,288 C125.688,288 139.084,285.5 151.709,280.667 C164,291.375 177.959,299.625 192.625,306.083 L217.541,281.209 C194.083,273.583 173.375,259.938 157.937,241.333 C144.938,250.5 129.125,256 112,256 C67.812,256 32,220.188 32,176 C32,131.812 67.812,96 112,96 C122.812,96 133.062,98.208 142.438,102.083 C163.667,60.667 206.291,32 256,32 C305.709,32 348.334,60.667 369.541,102.083 C378.938,98.208 389.209,96 400,96 C444.188,96 480,131.812 480,176 C480,220.188 444.188,256 400,256 C382.875,256 367.084,250.5 354.062,241.333 C343.687,253.854 330.75,264 316.437,271.917 L303,312.25 C323.875,305.688 343.5,295.312 360.291,280.667 C372.916,285.5 386.312,288 400,288 C461.75,288 512,237.75 512,176 C512,114.25 461.75,64 400,64 L400,64 Z M192,352 L224,384 L192,480 L288,384 L256,352 L288,256 L192,352 L192,352 Z"></path>
  </g>
</svg>
