<svg width="320px" height="224px" viewBox="0 0 320 224" xmlns="http://www.w3.org/2000/svg">
  <g fill="#1D1D1B">
    <path d="M16,32 L304,32 C312.833,32 320,24.833 320,16 C320,7.167 312.833,0 304,0 L16,0 C7.167,0 0,7.167 0,16 C0,24.833 7.167,32 16,32 L16,32 Z M304,64 L16,64 C7.167,64 0,71.167 0,80 C0,88.833 7.167,96 16,96 L304,96 C312.833,96 320,88.833 320,80 C320,71.167 312.833,64 304,64 L304,64 Z M304,128 L16,128 C7.167,128 0,135.167 0,144 C0,152.833 7.167,160 16,160 L304,160 C312.833,160 320,152.833 320,144 C320,135.167 312.833,128 304,128 L304,128 Z M304,192 L16,192 C7.167,192 0,199.167 0,208 C0,216.833 7.167,224 16,224 L304,224 C312.833,224 320,216.833 320,208 C320,199.167 312.833,192 304,192 L304,192 Z"></path>
  </g>
</svg>
